<?xml version="1.0" encoding="UTF-8"?>
<svg id="Layer_1" xmlns="http://www.w3.org/2000/svg" width="796.7" height="400" version="1.1" viewBox="0 0 796.7 400">
  <!-- Generator: Adobe Illustrator 30.2.1, SVG Export Plug-In . SVG Version: 2.1.1 Build 1)  -->
  <defs>
    <style>
      .st0 {
        fill: #89aee0;
      }

      .st1 {
        fill: #86ace0;
      }

      .st2 {
        fill: #a5cbf2;
      }

      .st3 {
        font-size: 66px;
      }

      .st4 {
        font-size: 122px;
      }

      .st5 {
        fill: #89aee1;
      }

      .st6 {
        fill: #89afe1;
      }

      .st7 {
        fill: #8aafe1;
        font-family: Fields-Bold, Fields;
        font-weight: 700;
      }

      .st8 {
        fill: #87aee0;
      }
    </style>
  </defs>
  <path class="st0" d="M140.3,57.9q1.1.6,2.2,1.2c.7.4,1.4.8,2.2,1.3.7.4,1.5.8,2.2,1.2,2.9,1.6,5.8,3.3,8.7,5.1,3,1.8,6.2,3,9.4,4.4,2.6,1.2,5.2,2.5,7.8,3.8.7.3,1.3.6,2,.9,3.2,1.6,4.9,2.7,6.2,6.1.3,1.4.7,2.8,1,4.2.5,2.1,1,4.1,1.6,6.2.6,2.5,1.2,4.9,1.8,7.4.3,1.3.7,2.6,1,3.9.9,3.5,1.7,6.9,2.6,10.4.9,3.5,1.7,7,2.6,10.5,1.3,5.1,2.6,10.3,3.8,15.4q.4,1.6.8,3.3c.5,1.8.9,3.7,1.4,5.5.7,2.9,1.4,5.7,2.4,8.5.5-1,1-2.1,1.5-3.1,3.8-7.8,7.7-15.5,12.5-22.9.4-.6.7-1.1,1.1-1.7q14.2-22.3,23.9-26.3c9-1.7,17.4.6,26.1,3.2,1,.3,2,.6,3,.9,7.1,2.2,10.9,4.8,15,11.2,2.9,6.1,4,12.9,5.4,19.4.5,2.4,1.1,4.7,1.7,7.1.2.8.4,1.5.6,2.3.4,1.5.7,3,1.1,4.4.7,2.9,1.2,5.5,1.2,8.4h2q.4-1.1.8-2.2c5.8-13.6,19.2-22.5,32.3-28.1,5.5-2.1,10.4-2.5,15.9-.5q3,1.8,5,4.8c.7,5.3.4,8-2.8,12.4-2,2.5-3.5,3.8-6.2,5.6,1.1,0,2.2.2,3.4.3q20.1,2,25.4,7.6,1.2,2.1,1.2,6.1c9.7.4,19-.3,28.6-1.5,8.6-1.1,17-1.8,25.7-1.9.9,0,1.8,0,2.7,0,4.1,0,6.4.2,10,2.4,2.6,2.8,3,4.3,3,8.1-2.3,5-5.4,8.9-9,13,5.2.2,9.3-.4,14.2-2,.7-.2,1.3-.4,2-.6,2.1-.6,4.2-1.3,6.3-1.9,2.8-.9,5.5-1.7,8.3-2.5,1.2-.4,2.4-.8,3.7-1.1,3.6-.9,6.8-1,10.5-.8.3,1.3.7,2.6,1,4-5.3,2-10.6,3.9-16.1,5.4-.7.2-1.5.4-2.2.6-2.2.6-4.5,1.3-6.7,1.9-.7.2-1.4.4-2.1.6-2,.6-4,1.1-6,1.7-1.2.3-2.3.7-3.5,1-4.3.9-8.4,1.2-12.7,0q-1.6-1.4-2.6-4.1c0-5.2,2.6-8.5,5.8-12.6q1.5-1.8,1.2-4.8c-8.6.5-17.1,1.2-25.7,2.2q-50.2,5.6-70.3-7.2-2.3-2.1-4-4v-2c-9.8,2.9-19.4,6.1-28.9,9.8-.8.3-1.5.6-2.3.9-.7.3-1.4.5-2.1.8q-1.7.6-3.7.6c0,.9,0,1.8,0,2.7.1,7.1-.1,14-1.1,21.1-2.9,22.5,3.2,38.8,14.2,58.2,4.6,8.1,6.7,14.7,5.8,24.1-1.5,4.2-3.5,7.1-7,10h-2v2c-15.6,7.1-30.4,6.3-47.1,4.7-1.4-.1-2.9-.3-4.3-.4-7.4-.7-14.8-1.5-22.2-2.6-23.1-3.1-48.1-5-69.6,5.5-2.6,1.1-5,1-7.8.8,3.9-16.9,16.6-29.6,28-42,.5-.6,1-1.1,1.6-1.7,12.6-13.6,25.3-26.5,39.8-38.1q2.6-2.2,5-4.6c3-3,6.3-5.8,9.5-8.6.6-.5,1.2-1,1.8-1.5,3.7-3.2,7.5-6.3,11.3-9.5-1.3-2.6-2.5-5.2-3.8-7.8-.4-.7-.7-1.5-1.1-2.2-1.8-3.6-3.5-6.9-6.1-10-.9.8-1.9,1.7-2.9,2.5q-2.9,2.5-5.1,2.5c-.3,1-.7,2-1,3-1.4,1.2-2.8,2.4-4.3,3.5q-1.8,1.5-3.5,3.8c-14.5,17.7-41.7,26.5-63.4,29-11.2,1.3-20.9,5.9-30.7,11.4-8.9,4.5-20.4,6.4-30.2,4.1-2.2-1-3.4-2-4.9-3.8q-.2-2.3,1-5c2.5-2.2,5.2-4.1,8-6-4,0-7.3.6-11.2,1.5-.7.2-1.4.3-2.1.5-2.2.5-4.4,1-6.6,1.5-2.2.5-4.4,1-6.6,1.5-2,.4-4,.9-6,1.3-7,1.5-10.5,1.9-16.9-1.6-.6-.3-1.2-.6-1.8-.9-1.4-.7-2.8-1.5-4.1-2.3-2.3-1.2-4.4-2-6.8-2.8-5.8-2.2-11.1-4.5-14.4-10-3.2-7.3-4.9-15-6.7-22.7-.6-2.3-1.2-4.5-1.8-6.8-1.2-4.5-2.3-9-3.4-13.5-1.5-6.3-3.2-12.5-4.8-18.8-2.3-8.7-4.3-17.5-6.1-26.4-.3-1.2-.5-2.5-.8-3.7-1.8-8.7-3-16.8-2.9-25.7,9.3-3,18.8-5.2,28.2-7.4,1.7-.4,3.4-.8,5.1-1.2,9.7-2.3,19.4-4.6,29.1-6.7,5.3-1.2,10.6-2.6,15.8-4.1,9.2-2.6,18.4-5,27.7-7.3,1.8-.4,3.5-.9,5.3-1.4,2.6-.7,5.2-1.3,7.8-2,.8-.2,1.6-.4,2.4-.6,6.3-1.6,12.9-2.9,18.9.5ZM121.5,65.2c-1.1.3-2.1.5-3.2.8-1.1.3-2.3.6-3.4.9-1.2.3-2.4.6-3.6.9-3.8,1-7.6,1.9-11.4,2.9-4.9,1.3-9.9,2.5-14.8,3.8-1.2.3-2.4.6-3.7.9-8.2,2.1-16.4,4.1-24.6,6-6.8,1.6-13.5,3.4-20.3,5.4-7.8,2.2-15.7,4.2-23.5,6.3q-.3,3.1,1.8,4.9c.8.7,1.6,1.3,2.4,2,.8.7,1.7,1.4,2.5,2.2.8.7,1.5,1.3,2.3,2,4.6,4.2,8.2,9,12,14,11.6-2.7,23.1-5.5,34.6-8.4.8-.2,1.6-.4,2.5-.6,16.7-4.3,33.3-8.8,49.9-13.3,8.7-2.4,17.4-4.7,26.1-6.9,1.3-.3,2.6-.7,3.9-1,2.3-.6,4.5-1.1,6.8-1.7,1-.2,1.9-.5,2.9-.7.8-.2,1.6-.4,2.5-.6q2.1-.6,3.9-2.7c-.9-.4-1.7-.9-2.6-1.3-3.2-1.6-6.4-3.3-9.5-4.9-1.4-.7-2.7-1.4-4.1-2.1-2-1-4-2-5.9-3.1-.6-.3-1.2-.6-1.8-.9-2.6-1.3-5.1-2.7-7.5-4.4-4.5-2.4-9.1-1.3-13.9,0ZM167.3,90c-.9.3-1.9.5-2.9.8-1,.3-2,.6-3.1.9-1,.3-2.1.6-3.2.9-2.2.6-4.4,1.2-6.7,1.8-3.4.9-6.8,1.9-10.2,2.8-2.2.6-4.3,1.2-6.5,1.8-1,.3-2,.6-3.1.8-1,.3-1.9.5-2.9.8-.8.2-1.7.5-2.5.7-2.5.8-5,1.7-7.4,2.7-1.3.4-2.7.7-4.1,1-.8.2-1.6.4-2.4.5-.8.2-1.7.4-2.6.6-10,2.3-19.9,5-29.8,7.8-6.3,1.8-12.6,3.5-18.9,5.1q-1.9.5-3.7.9c-2.4.6-4.7,1.2-7.1,1.7-1.1.3-2.1.5-3.2.8-.9.2-1.9.5-2.8.7-2.6.9-4.4,2.1-6.5,3.9q5.6,19.4,11.9,38.6c1.2,3.7,2.3,7.4,3.4,11.2,2.6,9.1,5.7,18.1,8.7,27.2.4,1.1.8,2.2,1.1,3.4.3,1,.7,2,1,3,.7,2.2,1.3,4.4,1.9,6.7,5.8-.6,11.4-1.7,17-3,.8-.2,1.7-.4,2.5-.6,1.7-.4,3.5-.8,5.2-1.2,2.7-.6,5.3-1.3,8-1.9,1.7-.4,3.4-.8,5.1-1.2q1.2-.3,2.4-.6,4-.9,7.8-2.5.5-1.5,1-3t1-3c3.7-1.8,8.3-1.4,12.3-.5,8.1,1.5,16,.4,24-1.5.9-.2,1.9-.4,2.8-.6,1.9-.4,3.9-.9,5.8-1.3,3-.7,5.9-1.4,8.9-2,1.9-.4,3.8-.9,5.7-1.3.9-.2,1.8-.4,2.7-.6,5.3-1.3,8.3-2.7,11.8-7.1q.8-.9,1.6-1.8c.4-.5.8-1.1,1.2-1.6q.6-.8,1.3-1.6c2.6-5.9.3-12.5-1.3-18.4-.5-1.8-.9-3.6-1.4-5.4-.2-.9-.5-1.8-.7-2.7-.9-3.7-1.8-7.4-2.7-11.1-1.6-6.8-3.3-13.6-5.1-20.4-1.4-5.2-2.7-10.4-4-15.7-.2-.7-.3-1.3-.5-2-.9-3.6-1.7-7.2-2.4-10.8-.3-1.2-.6-2.4-.9-3.6-3.4-1.1-4.3-.9-7.7,0ZM8,105c1.3,6,2.6,12,4,18,.2.9.4,1.8.6,2.8,1.4,6.1,3,12.2,4.6,18.2,1.2,4.4,2.2,8.8,3.3,13.2,1.4,5.8,2.8,11.6,4.3,17.4.6,2.3,1.1,4.7,1.7,7q2.6,13,10,23.4c5.2,3.3,10.7,5.5,16.6,7.3q2,.6,4,1.6c-1.3-7-3-13.7-5.1-20.5-.3-1-.6-2-.9-3-.7-2.1-1.3-4.2-2-6.3-1.3-4.2-2.6-8.3-3.8-12.5-1-3.2-2-6.4-3-9.6-1.4-4.5-2.7-9-4.1-13.5-.9-2.9-1.8-5.9-2.6-8.8-.4-1.4-.9-2.8-1.3-4.3-.6-2-1.2-4-1.8-6q-.5-1.7-1-3.5c-2.2-5-6.1-8.1-10.4-11.3q-1-.7-2-1.5-1.9-1.4-4.1-2.4c-2.4-1.2-2.7-2.6-3.8-5-1-.3-2-.7-3-1ZM314,145c-1.1.8-2.1,1.6-3.2,2.4-5.1,4.8-9.4,10.5-12.8,16.6,6.2-1.4,12-3.4,17.9-5.8.9-.4,1.8-.7,2.7-1.1,8.5-3.5,16.3-7.1,22.5-14.2q.9-1,1.9-2.1,1.4-1.9.9-4.1-.6-1.8-1.8-2.8c-11.2-1-19.4,4.4-28,11ZM340,159c5.6,4.9,8.9,5.1,16.2,5.1,1.3,0,2.5,0,3.8,0q1.4,0,2.9,0c-3-3.2-5.7-4.4-10-5-4.3-.2-8.7-.1-13,0ZM204,174c-.6,1-1.1,2-1.7,3.1-2.2,3.9-4.6,7.5-7.2,11.1q-.6.9-1.2,1.8c-.4.6-.8,1.2-1.3,1.8-.4.5-.7,1-1.1,1.6-4.7,4.9-9.6,6.4-16,7.5-.8.1-1.6.3-2.4.4-1.7.3-3.4.6-5.1.9-2.6.4-5.1.9-7.7,1.4q-18.6,3.4-26.3,3.4-.5-.5-1-1c-2.3,0-4.7,0-7,0,.6.4,1.3.8,1.9,1.2,2.5,2.2,2.7,3.6,3.1,6.8-1.2.4-2.4.7-3.6,1.1-7.1,2.3-13.7,5.7-20.4,8.9v1c10.9.9,19.5-3.7,29-8.6,7.9-4,15.5-5.7,24.2-7,20.2-3,39.9-9.7,54.8-24.4.3-1,.7-2,1-3q-.8-.5-1.6-1c-3.6-2.2-7.1-4.4-10.4-7ZM284,177v2c-1.6.7-3.3,1.3-5,2v2c-.7.3-1.5.5-2.2.8-2.8,1.2-4.6,2.5-6.9,4.4q-1.1.9-2.2,1.9c-.8.6-1.5,1.3-2.3,2-1.5,1.3-3,2.6-4.6,3.8q-1,.9-2,1.7-1.7,1.4-3.7,2.4v2q-.8.3-1.6.7c-3.2,1.8-5.7,4.1-8.4,6.4-4,3.4-7.9,6.7-12.2,9.7-5.9,4.2-11.4,8.8-17,13.4-.7.6-1.4,1.2-2.1,1.8-.6.5-1.3,1.1-1.9,1.6q-1.7,1.4-4.7,3.4v2c-.6.3-1.2.5-1.8.8-2.3,1.2-3.8,2.5-5.6,4.4-.6.6-1.3,1.3-1.9,1.9-.7.7-1.3,1.3-2,2q-1,1-2.1,2.1c-4.4,4.5-8.6,9-12.6,13.8-1,1.1-1.9,2.2-2.9,3.3-1.1,1.2-2.1,2.5-3.2,3.7-.5.6-1,1.2-1.5,1.8q-6.3,6.5-9.3,14.2c1-.3,2.1-.6,3.2-.9,26.1-6.6,53.8-2.8,80.3,0q27.7,3.8,53.6-4.1c2.5-2.4,4.4-4.9,6-8,.2-7.5-2-12.9-5.7-19.2-.9-1.7-1.8-3.3-2.7-5-.4-.8-.9-1.6-1.3-2.4-10.1-18.8-12.4-37.4-12.3-58.5,0-1.3,0-2.7,0-4,0-3.3,0-6.5,0-9.8h-1Z"/>
  <path class="st6" d="M192,304h3c1.7,6.1,2.2,12,2.2,18.4,0,.7,0,1.4,0,2.1,0,3.3-.3,6.3-1.2,9.5,4.2-.3,8.4-.5,12.6-.8,1.2,0,2.4-.1,3.6-.2,9.4-.7,15.3-1.7,21.9-9,.9-1,1.7-1.9,2.6-2.9.4-.5.9-1,1.3-1.5q11.7-13.1,19.1-14.6.8,1.6,1,4-1.8,3.2-4,6h-2q-.3,1-.7,2.1c-1.6,3.5-3.9,6.1-6.5,8.9q-.7.8-1.4,1.6c-2.5,2.8-4.7,4.6-8.2,6.2q-3.5,1.8-4.5,5.4c-.3,1.6-.5,3.1-.7,4.7-.5,2.4-.9,4.7-1.4,7.1-.5,2.7-1,5.4-1.5,8.1-1,5.3-2,10.6-3.1,15.9-.1.7-.3,1.3-.4,2-.4,1.9-.8,3.8-1.2,5.8-.2,1.1-.4,2.2-.7,3.4-1.1,4.2-2.4,6.1-5.8,8.9-6.4,2.5-13,3-19.8,3.6-.7,0-1.3.1-2,.2-11.1,1-22.1,1.5-33.2,1.6q-1.1,0-2.1,0c-2,0-4,0-6.1,0-1.2,0-2.3,0-3.5,0-4.5-.7-7.9-2.7-10.6-6.4-1.2-4.1-1-7.1.4-11.1,3.3-5.1,6.8-8.2,12.6-10.3,10.3-2,20.9-1.8,31.4-1.7.1-.5.3-1,.4-1.6,1.8-6,3.7-11.9,5.6-17.8.3-.8.5-1.6.8-2.4.2-.7.5-1.5.8-2.3.2-.7.4-1.3.7-2,.8-2.1,1.7-4,2.7-5.9-.6-.1-1.3-.2-1.9-.3-.7-.2-1.4-.5-2.1-.7-1.7-5-.9-10.1-.7-15.3,0-1.1,0-2.3.1-3.4q0-1.6.1-3.3c0-1,0-2,.1-3,.4-3.2,1.2-5.9,2.3-8.9Z"/>
  <path class="st5" d="M246.8,2.7c10.1,6.1,16.7,15.1,20.2,26.3.4,2.3.7,4.7,1,7,.6,2.1,1.3,4.2,1.9,6.3,1.8,5.5,3.1,11,4.1,16.7.7,0,1.3,0,2,0,6.4.3,9.7,1.2,14,6,3.7,7.6,2.6,16,0,23.8-2.1,4.7-4.6,7.4-9.1,10-8.4,3-17.4,2.7-25.9.2-5.6-2.9-9-6.4-11.2-12.3-1.3-6.5-1-11.4,1.2-17.7-6.1-5.7-12.3-11-19-16-3.3-2.6-6.3-5.2-9.3-8.2-2.9-2.5-5-3.3-8.9-3.4-3.5.6-4.5,1.2-6.6,4.1-1,2.1-1.9,4.2-2.8,6.3-2.8,6.4-7.5,11.4-12.4,16.2,1.1,2.7,2.3,4.3,4.4,6.5,3.8,4.4,5,10,6.6,15.5,4.1.9,6.9.7,11,0,4.3-.5,7.3-.3,11.3,1.4,3.6,3.4,4.9,6.7,5.7,11.6q-.3,3.6-1,6-2.2,0-5-1c-2-3.3-4-7.1-4-11-1.2,0-2.3.2-3.5.3-1.5.1-3.1.2-4.6.3-.8,0-1.5.1-2.3.2-5.2.4-9,.2-13.2-3.2-2.6-3.3-3.7-7.7-4.9-11.7-1.6-5-3.4-6.9-7.9-9.7q-1.5-1.1-2.8-3.6c.3-3,1.3-4,3.5-5.9,6.3-5.7,11.5-12.2,15.7-19.6-.7,0-1.4,0-2.2,0-5.4,0-9.8,0-14.8-2.1.3-1,.7-2,1-3q2.3-.9,5.2-1.6c.9-.2,1.9-.5,2.9-.7,3-.7,5.9-1.2,9-1.6q.2-1.1.4-2.3c2.2-9.9,5.8-18,13.6-24.7.7-.7,1.5-1.4,2.2-2.1,10.3-7.2,22.9-8.8,34.5-3.3ZM235.3,37.5c-4.4.6-8.9,1.1-13.3,1.5,1.5,4.3,4.8,6.5,8.3,9.1.6.5,1.2,1,1.9,1.4,2.6,2,5.1,3.9,7.7,5.9,1.2.9,2.4,1.8,3.6,2.8,1.1.9,2.2,1.7,3.4,2.5,2.6,2,4.3,3.5,6.1,6.3-.3,2.6-.8,4.6-2,7-.8,6.8-.2,11.5,4,17,4.6,2.8,8.2,3.4,13.5,3.4q1.9,0,3.8,0c5.2-.7,8.4-2.8,11.5-6.9,2.1-6.5,2.6-13.6-.6-19.8-5.2-2.7-10.5-2.7-16.3-2.8,0-.8,0-1.7,0-2.6-.5-9.4-1.6-18.9-5.9-27.4-8.6,0-17.2,1.2-25.7,2.5Z"/>
  <path class="st0" d="M396.8,302.6c10.8.4,21.2,7.4,30.5,12.5,4.7,2.6,9.5,5,14.4,7q2.3.9,3.3,1.9c-.2,8.3-1.7,16.7-2.9,24.9-.2,1.2-.3,2.4-.5,3.6-.2,1.2-.3,2.3-.5,3.5-.1,1-.3,2.1-.4,3.1-1,4.2-2.6,7-5.9,9.7-4.1,1.7-6.5,1.2-10.8.1-3.6-3-4.3-7.6-5-12-.2-2.8-.4-5.5-.6-8.3q0-1.1-.1-2.2c-.1-1.8-.2-3.6-.3-5.5-1.1,0-2.1-.1-3.3-.2-4-.2-8-.4-12-.6-1.7,0-3.5-.2-5.2-.3-2.5-.1-5-.3-7.4-.4-.8,0-1.5,0-2.3-.1-3.1-.2-5.8-.4-8.8-1.4-1.1-3.8-1.2-5.5.5-9.1.7-1.1,1.4-2.1,2.2-3.2,3.9-6,6.9-11.9,9.4-18.6,1.3-3.2,2.3-4,5.7-4.5Z"/>
  <path class="st0" d="M320,191c6.9.8,12.5,3.8,18.6,6.9,2,1,4,1.9,6,2.9,15.5,7.5,27,18.3,32.9,34.8,4.4,12.9,5.8,25.2,5.5,38.9,0,2.4,0,4.9-.1,7.3,0,1.1,0,2.1,0,3.2.2,3.3,1,6,2.2,9q-2.2.8-5,1c-4.6-3-5.9-7.9-7-13-.3-4.2-.1-8.4,0-12.6.2-10-.3-18.7-3-28.4-.2-.9-.4-1.8-.6-2.7-3-11.8-9.2-20.9-19.5-27.2-5.6-3.3-11.4-6.4-17.3-9.3-4.6-2.3-8.7-4.5-12.6-7.8v-3Z"/>
  <path class="st1" d="M306,304c1.9,1.8,3.7,3.6,5.2,5.6,7.9,10.2,21.6,13.2,33.8,15.4,7.8.9,14.5.2,22-2,2.7-.2,5.3,0,8,0q.5,2,1,4c-6.5,6.2-12.7,8.1-21.7,8.4-14.4-.4-32.3-6.6-43-16.9q-6.5-7.6-6.1-12.6c.3-.7.5-1.3.8-2Z"/>
  <path class="st8" d="M203,53c3,1.1,5.3,2.2,8,4q2.3.2,4.7.1c.8,0,1.6,0,2.4,0,.6,0,1.2,0,1.9,0q-.5,6.5-2.6,8.5c-3.4.7-6,.4-9.4-.5-4.1-2.9-4.9-6.2-6-11l1-1Z"/>
  <path class="st2" d="M163,279q.8,1.8,1,4-1.8,2.1-4,4c-.6.6-1.2,1.2-1.8,1.8q-.6.6-1.2,1.2c1.3-4.5,2.9-7.5,6-11Z"/>
  <text class="st7" transform="translate(506 109)"><tspan class="st3"><tspan x="0" y="0">The </tspan></tspan><tspan class="st4"><tspan x="0" y="114">Safe </tspan></tspan><tspan class="st4"><tspan x="0" y="228">Plate</tspan></tspan></text>
</svg>