<?xml version="1.0" encoding="UTF-8"?>
<svg version="1.1" xmlns="http://www.w3.org/2000/svg" width="477" height="400">
<path d="M0 0 C1.07797852 0.5887793 1.07797852 0.5887793 2.17773438 1.18945312 C2.89896484 1.60517578 3.62019531 2.02089844 4.36328125 2.44921875 C5.09611328 2.85333984 5.82894531 3.25746094 6.58398438 3.67382812 C9.51823248 5.30102612 12.40826801 6.97038298 15.2578125 8.7421875 C18.29313951 10.4927719 21.44675061 11.77784932 24.67578125 13.13671875 C27.31155088 14.32771094 29.9030126 15.59022582 32.48828125 16.88671875 C33.15537109 17.19609375 33.82246094 17.50546875 34.50976562 17.82421875 C37.72551244 19.45967425 39.44305432 20.47783326 40.66479492 23.93676758 C41.01180255 25.33430329 41.34700861 26.7347812 41.67578125 28.13671875 C42.19901077 30.19544963 42.72320257 32.25393605 43.24804688 34.31225586 C43.86058265 36.7625565 44.47183753 39.21317758 45.08203125 41.6640625 C45.41058159 42.9801335 45.73923743 44.29617817 46.06799316 45.61219788 C46.92969403 49.06279963 47.78998286 52.51375187 48.64996338 55.96478271 C49.52100352 59.45915511 50.3933648 62.95319762 51.265625 66.44726562 C52.54564068 71.5752604 53.82493987 76.70343307 55.10351562 81.83178711 C55.51380005 83.47544754 55.51380005 83.47544754 55.93237305 85.15231323 C56.38918314 86.98617322 56.84418596 88.82048593 57.29614258 90.6555481 C58.0040631 93.52371042 58.7410135 96.33241549 59.67578125 99.13671875 C60.18367187 98.09773438 60.6915625 97.05875 61.21484375 95.98828125 C65.06318307 88.16658327 68.95929977 80.47954722 73.67578125 73.13671875 C74.03397949 72.57098145 74.39217773 72.00524414 74.76123047 71.42236328 C88.92501521 49.13514608 88.92501521 49.13514608 98.67578125 45.13671875 C107.70538566 43.42270856 116.11853044 45.76976727 124.73828125 48.32421875 C125.73786865 48.61538574 126.73745605 48.90655273 127.76733398 49.20654297 C134.85942503 51.448175 138.68274571 53.9961779 142.73828125 60.38671875 C145.59174899 66.49474408 146.73260675 73.25162541 148.15820312 79.80517578 C148.68571098 82.18144938 149.2453152 84.54790643 149.81640625 86.9140625 C150.00203125 87.68435791 150.18765625 88.45465332 150.37890625 89.24829102 C150.73681164 90.7296039 151.09613113 92.210576 151.45703125 93.69116211 C152.14677849 96.5839982 152.67578125 99.15046526 152.67578125 102.13671875 C153.33578125 102.13671875 153.99578125 102.13671875 154.67578125 102.13671875 C155.07796875 101.03070313 155.07796875 101.03070313 155.48828125 99.90234375 C161.31578434 86.33039575 174.68507193 77.38283566 187.82373047 71.83740234 C193.29781992 69.7663983 198.17685782 69.30634894 203.67578125 71.38671875 C206.67578125 73.13671875 206.67578125 73.13671875 208.67578125 76.13671875 C209.39758904 81.46005119 209.06605892 84.14862957 205.86328125 88.51171875 C203.87399288 90.97745397 202.36077074 92.34672575 199.67578125 94.13671875 C200.78695313 94.2346875 201.898125 94.33265625 203.04296875 94.43359375 C223.17272375 96.38455494 223.17272375 96.38455494 228.43359375 102.01953125 C229.67578125 104.13671875 229.67578125 104.13671875 229.67578125 108.13671875 C239.38787852 108.53283148 248.66636222 107.87359383 258.30078125 106.63671875 C266.87187481 105.56728643 275.34705209 104.79249564 283.98828125 104.69921875 C284.89465332 104.67730469 285.80102539 104.65539062 286.73486328 104.6328125 C290.88069289 104.6454933 293.1071336 104.79026761 296.71484375 106.98828125 C299.29509328 109.81524786 299.75087106 111.30713854 299.67578125 115.13671875 C297.3576507 120.12961532 294.29377117 124.01623023 290.67578125 128.13671875 C295.84769587 128.34545073 299.95923485 127.69636917 304.89453125 126.16796875 C305.55610229 125.96820435 306.21767334 125.76843994 306.89929199 125.56262207 C308.99436421 124.92976271 311.08539033 124.28486077 313.17578125 123.63671875 C315.93295392 122.78183585 318.69360827 121.93989697 321.45703125 121.10546875 C322.67455078 120.72841797 323.89207031 120.35136719 325.14648438 119.96289062 C328.77986397 119.11235406 331.95827509 118.98668487 335.67578125 119.13671875 C336.00578125 120.45671875 336.33578125 121.77671875 336.67578125 123.13671875 C331.37111877 125.18153278 326.07463689 126.99979124 320.61328125 128.57421875 C319.88447754 128.78522217 319.15567383 128.99622559 318.40478516 129.21362305 C316.16302617 129.85908081 313.91944759 130.49792794 311.67578125 131.13671875 C310.97308105 131.34006836 310.27038086 131.54341797 309.54638672 131.75292969 C307.55057463 132.32856292 305.55151483 132.89096305 303.55078125 133.44921875 C302.39320313 133.77535156 301.235625 134.10148438 300.04296875 134.4375 C295.70031661 135.33928043 291.61841133 135.64793719 287.30078125 134.51171875 C285.67578125 133.13671875 285.67578125 133.13671875 284.67578125 130.44921875 C284.67578125 125.20586185 287.28822354 121.92072153 290.42578125 117.88671875 C291.96640035 116.08828223 291.96640035 116.08828223 291.67578125 113.13671875 C283.06934926 113.64462692 274.52777701 114.32749465 265.95898438 115.29248047 C215.78860252 120.87068763 215.78860252 120.87068763 195.67578125 108.13671875 C193.33984375 106.0703125 193.33984375 106.0703125 191.67578125 104.13671875 C191.67578125 103.47671875 191.67578125 102.81671875 191.67578125 102.13671875 C181.91469484 105.05831289 172.32358161 108.27996556 162.79760742 111.90063477 C162.02779541 112.19123779 161.2579834 112.48184082 160.46484375 112.78125 C159.78115723 113.04268799 159.0974707 113.30412598 158.39306641 113.57348633 C156.67578125 114.13671875 156.67578125 114.13671875 154.67578125 114.13671875 C154.69898438 115.02230469 154.7221875 115.90789062 154.74609375 116.8203125 C154.84988604 123.94491153 154.59782842 130.81769044 153.67578125 137.88671875 C150.81816721 160.39828338 156.88432561 176.72800291 167.84179688 196.05737305 C172.40814277 204.18068707 174.58688548 210.73131966 173.67578125 220.13671875 C172.13458103 224.37501936 170.134483 227.23587212 166.67578125 230.13671875 C166.01578125 230.13671875 165.35578125 230.13671875 164.67578125 230.13671875 C164.67578125 230.79671875 164.67578125 231.45671875 164.67578125 232.13671875 C149.06166847 239.25288519 134.31982628 238.45364966 117.61328125 236.82421875 C116.18304394 236.6894864 114.75278645 236.55496803 113.32250977 236.4206543 C105.88308811 235.71126257 98.48225878 234.87188224 91.078125 233.85107422 C67.97464802 230.71962469 42.96848162 228.84558383 21.515625 239.38671875 C18.86983535 240.4652572 16.48501344 240.42484513 13.67578125 240.13671875 C17.53279193 223.20260519 30.22760438 210.55773007 41.67578125 198.13671875 C42.19833496 197.56904785 42.72088867 197.00137695 43.25927734 196.41650391 C55.81469258 182.79956256 68.59240473 169.94886143 83.0625 158.34765625 C85.70394711 156.17499941 85.70394711 156.17499941 88.07421875 153.73828125 C91.11819088 150.69430912 94.332305 147.91972121 97.61328125 145.13671875 C98.20818359 144.62882813 98.80308594 144.1209375 99.41601562 143.59765625 C103.14708251 140.41707464 106.90421587 137.26913335 110.67578125 134.13671875 C109.40990767 131.55084872 108.13832276 128.96806374 106.86328125 126.38671875 C106.50685547 125.65710938 106.15042969 124.9275 105.78320312 124.17578125 C104.00047608 120.57761657 102.26489786 117.24039166 99.67578125 114.13671875 C98.72703125 114.96171875 97.77828125 115.78671875 96.80078125 116.63671875 C93.92578125 119.13671875 93.92578125 119.13671875 91.67578125 119.13671875 C91.34578125 120.12671875 91.01578125 121.11671875 90.67578125 122.13671875 C89.25366575 123.33761629 87.82868503 124.53786602 86.34375 125.66015625 C84.53009537 127.17462713 84.53009537 127.17462713 82.8359375 129.5 C68.31769957 147.2211765 41.17188751 155.99576134 19.40234375 158.515625 C8.15909228 159.83427795 -1.46718799 164.40644559 -11.26171875 169.88671875 C-20.17873304 174.42820995 -31.69209 176.31656852 -41.44140625 173.97265625 C-43.61633642 173.00702335 -44.83588274 171.9867065 -46.32421875 170.13671875 C-46.51171875 167.82421875 -46.51171875 167.82421875 -45.32421875 165.13671875 C-42.81191356 162.89886707 -40.12613891 160.99402801 -37.32421875 159.13671875 C-41.34562885 159.13671875 -44.58701917 159.75590851 -48.50390625 160.6328125 C-49.19428986 160.78581314 -49.88467346 160.93881378 -50.59597778 161.09645081 C-52.79796172 161.58508117 -54.99863157 162.07933949 -57.19921875 162.57421875 C-59.39285477 163.06461484 -61.58675262 163.55378536 -63.78103638 164.04127502 C-65.77758323 164.48527965 -67.77333561 164.93285235 -69.76904297 165.38061523 C-76.77977875 166.8716363 -80.26565486 167.26031716 -86.63671875 163.76171875 C-87.23033203 163.45105469 -87.82394531 163.14039063 -88.43554688 162.8203125 C-89.82245236 162.09124436 -91.19247523 161.32969383 -92.55004883 160.54736328 C-94.84209551 159.38187479 -96.9527607 158.55277434 -99.36987305 157.72216797 C-105.17680397 155.51595163 -110.4881827 153.2019826 -113.78500366 147.69793701 C-116.96054177 140.42144147 -118.6905657 132.7129944 -120.51171875 125.01171875 C-121.09987066 122.74056001 -121.69423676 120.47100112 -122.29492188 118.203125 C-123.47276802 113.71231457 -124.60991863 109.21440985 -125.7097168 104.70385742 C-127.24150849 98.42393373 -128.88407688 92.17699333 -130.54296875 85.9296875 C-132.8440575 77.18790427 -134.87333801 68.44024169 -136.63671875 59.57421875 C-136.88744141 58.34509766 -137.13816406 57.11597656 -137.39648438 55.84960938 C-139.16776962 47.11665076 -140.44464946 39.04859143 -140.32421875 30.13671875 C-131.04769755 27.12170286 -121.56292157 24.98320509 -112.07421875 22.76171875 C-110.36095283 22.35795856 -108.64773698 21.95398581 -106.93457031 21.54980469 C-97.23825123 19.2663641 -87.53850028 16.99399105 -77.79980469 14.89697266 C-72.48023119 13.72295785 -67.24685449 12.30033337 -62.00390625 10.828125 C-52.80805188 8.24630061 -43.57700319 5.82365271 -34.31591797 3.48706055 C-32.55249197 3.04036325 -30.7901352 2.58942619 -29.02880859 2.13452148 C-26.42901844 1.46323096 -23.82632814 0.80448911 -21.22265625 0.1484375 C-20.44546234 -0.05461502 -19.66826843 -0.25766754 -18.86752319 -0.46687317 C-12.54285264 -2.03557445 -5.97219277 -3.3481959 0 0 Z M-18.81274414 7.3425293 C-19.86567154 7.60668137 -20.91859894 7.87083344 -22.00343323 8.14299011 C-23.13151901 8.43353775 -24.2596048 8.72408539 -25.421875 9.0234375 C-26.60655869 9.32232376 -27.79124237 9.62121002 -29.01182556 9.92915344 C-32.80517845 10.88752215 -36.59599774 11.85549769 -40.38671875 12.82421875 C-45.33531618 14.08058175 -50.28486242 15.33318551 -55.234375 16.5859375 C-56.43954773 16.89187836 -57.64472046 17.19781921 -58.88641357 17.51303101 C-67.08295513 19.58855939 -75.2931652 21.59474562 -83.52833557 23.51139832 C-90.33941804 25.10424113 -97.06472455 26.95829544 -103.79296875 28.8671875 C-111.60464817 31.07461021 -119.46919053 33.09023135 -127.32421875 35.13671875 C-127.67053178 38.20751255 -127.67053178 38.20751255 -125.53125 40.00390625 C-124.74105469 40.66648438 -123.95085937 41.3290625 -123.13671875 42.01171875 C-122.31042969 42.72199219 -121.48414063 43.43226562 -120.6328125 44.1640625 C-119.87097656 44.81503906 -119.10914063 45.46601562 -118.32421875 46.13671875 C-113.75403884 50.38045724 -110.08529574 55.1856013 -106.32421875 60.13671875 C-94.76792704 57.45756586 -83.25159733 54.64996219 -71.76171875 51.69921875 C-70.94916626 51.49106537 -70.13661377 51.28291199 -69.29943848 51.06845093 C-52.62819586 46.79210458 -36.01700107 42.29918827 -19.41333008 37.76855469 C-10.73742861 35.40297767 -2.06296218 33.04104206 6.65234375 30.82421875 C7.93012695 30.49897217 9.20791016 30.17372559 10.52441406 29.83862305 C12.79555286 29.26580675 15.06824053 28.69907951 17.34277344 28.13989258 C18.30602539 27.89779053 19.26927734 27.65568848 20.26171875 27.40625 C21.07688965 27.20620361 21.89206055 27.00615723 22.73193359 26.80004883 C24.87986878 26.22652992 24.87986878 26.22652992 26.67578125 24.13671875 C25.82346924 23.69803467 24.97115723 23.25935059 24.09301758 22.80737305 C20.91457683 21.17087259 17.73727488 19.53217166 14.56030273 17.89282227 C13.18821408 17.18519507 11.81582216 16.47815559 10.44311523 15.77172852 C8.46386928 14.75303065 6.48574331 13.73218604 4.5078125 12.7109375 C3.89927933 12.39831467 3.29074615 12.08569183 2.66377258 11.76359558 C0.05614751 10.41496445 -2.44096574 9.05787852 -4.8762207 7.41333008 C-9.41537501 5.04619755 -14.02219559 6.12357885 -18.81274414 7.3425293 Z M27.00830078 32.18481445 C26.06366974 32.43870438 25.1190387 32.6925943 24.14578247 32.95417786 C23.12701019 33.23742416 22.10823792 33.52067047 21.05859375 33.8125 C20.0092868 34.09772018 18.95997986 34.38294037 17.87887573 34.67680359 C15.65694036 35.2824604 13.43610845 35.8921777 11.21630859 36.50561523 C7.82363756 37.44290427 4.42784376 38.36805498 1.03125 39.29101562 C-1.12649675 39.88079867 -3.28405526 40.47127096 -5.44140625 41.0625 C-6.45613007 41.33967361 -7.47085388 41.61684723 -8.5163269 41.90242004 C-9.46726227 42.16576645 -10.41819763 42.42911285 -11.39794922 42.70043945 C-12.23051239 42.92995804 -13.06307556 43.15947662 -13.92086792 43.39595032 C-16.45358866 44.17659356 -18.87091133 45.1369344 -21.32421875 46.13671875 C-22.66959034 46.50630859 -24.02447488 46.8430134 -25.38671875 47.14453125 C-26.16805176 47.32226074 -26.94938477 47.49999023 -27.75439453 47.68310547 C-28.60243652 47.87404785 -29.45047852 48.06499023 -30.32421875 48.26171875 C-40.33752085 50.57903729 -50.22792143 53.26651399 -60.12280273 56.04223633 C-66.41178924 57.80043424 -72.70650242 59.50657053 -79.0390625 61.1015625 C-80.89023682 61.56876709 -80.89023682 61.56876709 -82.77880859 62.04541016 C-85.13262719 62.63505939 -87.48836181 63.21712715 -89.84619141 63.79052734 C-90.90241699 64.05559082 -91.95864258 64.3206543 -93.046875 64.59375 C-93.97250244 64.8203833 -94.89812988 65.0470166 -95.85180664 65.28051758 C-98.47007907 66.18723046 -100.21365975 67.36305939 -102.32421875 69.13671875 C-96.67828092 88.52049331 -96.67828092 88.52049331 -90.453125 107.72265625 C-89.23103665 111.41852206 -88.14377248 115.14484633 -87.07421875 118.88671875 C-84.4534788 128.03363647 -81.40347026 137.03492815 -78.35839844 146.04785156 C-77.98102539 147.16643555 -77.60365234 148.28501953 -77.21484375 149.4375 C-76.87485352 150.43950439 -76.53486328 151.44150879 -76.18457031 152.47387695 C-75.47003661 154.68540337 -74.8497536 156.87429793 -74.32421875 159.13671875 C-68.52303188 158.50688974 -62.97075988 157.46982535 -57.30078125 156.10546875 C-56.47339447 155.90949097 -55.64600769 155.71351318 -54.79354858 155.51159668 C-53.06028845 155.10008897 -51.32751459 154.68652814 -49.59521484 154.27099609 C-46.93707928 153.63380877 -44.27728781 153.00392896 -41.6171875 152.375 C-39.92828381 151.97308297 -38.23947809 151.570754 -36.55078125 151.16796875 C-35.35710434 150.88512024 -35.35710434 150.88512024 -34.13931274 150.59655762 C-30.12825791 149.66720298 -30.12825791 149.66720298 -26.32421875 148.13671875 C-25.82921875 146.65171875 -25.82921875 146.65171875 -25.32421875 145.13671875 C-24.82921875 143.65171875 -24.82921875 143.65171875 -24.32421875 142.13671875 C-20.64406762 140.29664318 -15.97533639 140.78218877 -12.01174927 141.633255 C-3.88746848 143.15520268 4.02721108 141.98527491 11.98046875 140.125 C12.90747589 139.91489792 13.83448303 139.70479584 14.7895813 139.48832703 C16.72864931 139.04466485 18.66630692 138.59479536 20.60253906 138.13891602 C23.55980076 137.44710877 26.52318441 136.78816494 29.48828125 136.13085938 C31.38196579 135.69337268 33.27521257 135.25398586 35.16796875 134.8125 C36.04822723 134.61956863 36.92848572 134.42663727 37.8354187 134.2278595 C43.14202544 132.94251942 46.09838735 131.49747086 49.67578125 127.13671875 C50.45888672 126.25886719 50.45888672 126.25886719 51.2578125 125.36328125 C51.66386719 124.83476562 52.06992188 124.30625 52.48828125 123.76171875 C53.11669922 122.97667969 53.11669922 122.97667969 53.7578125 122.17578125 C56.40300906 116.30006804 54.0105751 109.65602969 52.42578125 103.76171875 C51.96115181 101.97424073 51.49762713 100.18647522 51.03515625 98.3984375 C50.80376953 97.51075684 50.57238281 96.62307617 50.33398438 95.70849609 C49.38757119 92.01060422 48.52929604 88.29442994 47.67578125 84.57421875 C46.09205158 77.73853831 44.34017429 70.95506373 42.5378418 64.17407227 C41.15299211 58.96174859 39.79894702 53.74320611 38.48828125 48.51171875 C38.32271729 47.85606934 38.15715332 47.20041992 37.98657227 46.52490234 C37.08853018 42.93181057 36.31192248 39.3355891 35.61328125 35.69921875 C35.30390625 34.52359375 34.99453125 33.34796875 34.67578125 32.13671875 C31.30161173 31.01199558 30.34832612 31.27187635 27.00830078 32.18481445 Z M-132.32421875 47.13671875 C-131.0438229 53.1490123 -129.7009351 59.14575576 -128.32421875 65.13671875 C-128.11474609 66.0484082 -127.90527344 66.96009766 -127.68945312 67.89941406 C-126.26670131 73.99961986 -124.73143032 80.06357207 -123.12696838 86.11849976 C-121.97522443 90.50652757 -120.90212646 94.90687931 -119.87646484 99.32617188 C-118.5235214 105.14663769 -117.07803227 110.93878939 -115.58633423 116.72515869 C-115.00034953 119.06123571 -114.44432591 121.40505669 -113.92025757 123.75579834 C-111.35562863 136.72418686 -111.35562863 136.72418686 -103.92785645 147.16101074 C-98.71071373 150.4234395 -93.20667375 152.66578713 -87.34609985 154.49996948 C-85.32421875 155.13671875 -85.32421875 155.13671875 -83.32421875 156.13671875 C-84.58543457 149.13706493 -86.32222227 142.41977335 -88.44921875 135.63671875 C-88.75561279 134.64534912 -89.06200684 133.65397949 -89.37768555 132.63256836 C-90.02802634 130.52902735 -90.6803261 128.4260911 -91.33447266 126.32373047 C-92.6233871 122.1733878 -93.89475561 118.01776376 -95.16625977 113.86206055 C-96.15275362 110.64695919 -97.14838896 107.43477992 -98.14453125 104.22265625 C-99.53079493 99.74326768 -100.88804147 95.25652847 -102.22132874 90.76118469 C-103.09308594 87.83083036 -103.97771824 84.904443 -104.86410522 81.97848511 C-105.29203289 80.55499698 -105.71436328 79.12981284 -106.13076782 77.70291138 C-106.71578162 75.70086482 -107.32054254 73.70575305 -107.9296875 71.7109375 C-108.44245239 69.98750122 -108.44245239 69.98750122 -108.96557617 68.22924805 C-111.1654434 63.22193122 -115.06917352 60.15089742 -119.38671875 56.94921875 C-120.36318359 56.21638672 -120.36318359 56.21638672 -121.359375 55.46875 C-123.30116553 54.08186043 -123.30116553 54.08186043 -125.50390625 53.08984375 C-127.85391003 51.85936967 -128.19369349 50.47313763 -129.32421875 48.13671875 C-130.31421875 47.80671875 -131.30421875 47.47671875 -132.32421875 47.13671875 Z M173.67578125 87.13671875 C172.62390625 87.92046875 171.57203125 88.70421875 170.48828125 89.51171875 C165.35216242 94.30542966 161.05639802 99.97206465 157.67578125 106.13671875 C163.88192286 104.73209548 169.65251806 102.76386525 175.55078125 100.38671875 C176.43193604 100.03182373 177.31309082 99.67692871 178.22094727 99.3112793 C186.6994273 95.82558606 194.5604452 92.17862087 200.67578125 85.13671875 C201.60390625 84.11578125 201.60390625 84.11578125 202.55078125 83.07421875 C203.90244206 81.19036901 203.90244206 81.19036901 203.42578125 78.94921875 C202.81683029 77.15009611 202.81683029 77.15009611 201.67578125 76.13671875 C190.50018626 75.12075557 182.28406676 80.5644799 173.67578125 87.13671875 Z M199.67578125 101.13671875 C205.31663956 105.99412452 208.5625843 106.2673965 215.92578125 106.19921875 C217.1890625 106.19019531 218.45234375 106.18117188 219.75390625 106.171875 C221.20023437 106.15447266 221.20023437 106.15447266 222.67578125 106.13671875 C219.71656791 102.94111855 216.95164965 101.7640384 212.67578125 101.13671875 C208.33663287 100.97976006 204.01552919 101.01925189 199.67578125 101.13671875 Z M63.67578125 116.13671875 C63.11632812 117.14347656 62.556875 118.15023437 61.98046875 119.1875 C59.77491597 123.04091302 57.3567565 126.69600001 54.80078125 130.32421875 C54.18783203 131.22817383 54.18783203 131.22817383 53.5625 132.15039062 C53.14871094 132.73755859 52.73492187 133.32472656 52.30859375 133.9296875 C51.94652832 134.45071045 51.58446289 134.9717334 51.21142578 135.50854492 C46.55576711 140.44472738 41.62380686 141.93383761 35.19921875 143.0234375 C34.39271881 143.17077835 33.58621887 143.3181192 32.75527954 143.46992493 C31.05369481 143.7779869 29.35087908 144.07931728 27.64697266 144.37426758 C25.07680193 144.81970905 22.51108926 145.28583668 19.9453125 145.75585938 C1.30194562 149.1193907 1.30194562 149.1193907 -6.32421875 149.13671875 C-6.81921875 148.64171875 -6.81921875 148.64171875 -7.32421875 148.13671875 C-9.65719308 148.09578938 -11.991271 148.09430152 -14.32421875 148.13671875 C-13.68484375 148.52859375 -13.04546875 148.92046875 -12.38671875 149.32421875 C-9.88643056 151.52144171 -9.6747145 152.89463308 -9.32421875 156.13671875 C-10.49984375 156.48734375 -11.67546875 156.83796875 -12.88671875 157.19921875 C-19.96595043 159.5362728 -26.61741571 162.91144456 -33.32421875 166.13671875 C-33.32421875 166.46671875 -33.32421875 166.79671875 -33.32421875 167.13671875 C-22.44251363 168.05889715 -13.78335996 163.46750908 -4.32421875 158.51171875 C3.55265881 154.50388017 11.20546563 152.78733992 19.89453125 151.5078125 C40.12625055 148.49190403 59.75452776 141.83016684 74.67578125 127.13671875 C75.00578125 126.14671875 75.33578125 125.15671875 75.67578125 124.13671875 C74.87914062 123.64751953 74.87914062 123.64751953 74.06640625 123.1484375 C70.49341394 120.93813751 66.97495812 118.74856711 63.67578125 116.13671875 Z M143.67578125 119.13671875 C143.67578125 119.79671875 143.67578125 120.45671875 143.67578125 121.13671875 C142.02578125 121.79671875 140.37578125 122.45671875 138.67578125 123.13671875 C138.67578125 123.79671875 138.67578125 124.45671875 138.67578125 125.13671875 C137.93610107 125.40025146 137.1964209 125.66378418 136.43432617 125.93530273 C133.67654384 127.13638662 131.82473199 128.42543112 129.5390625 130.359375 C128.4262793 131.29040039 128.4262793 131.29040039 127.29101562 132.24023438 C126.53111328 132.88669922 125.77121094 133.53316406 124.98828125 134.19921875 C123.46487775 135.48335754 121.94019958 136.76598615 120.4140625 138.046875 C119.409198 138.89971069 119.409198 138.89971069 118.3840332 139.76977539 C116.67578125 141.13671875 116.67578125 141.13671875 114.67578125 142.13671875 C114.67578125 142.79671875 114.67578125 143.45671875 114.67578125 144.13671875 C113.87333984 144.47316406 113.87333984 144.47316406 113.0546875 144.81640625 C109.89388402 146.57067813 107.31735612 148.89105039 104.61328125 151.26171875 C100.6596877 154.67111308 96.69509204 157.93520301 92.42578125 160.94921875 C86.51535823 165.13722559 80.98336768 169.7519289 75.42480469 174.38989258 C74.72387695 174.97407959 74.02294922 175.5582666 73.30078125 176.16015625 C72.67429688 176.68528809 72.0478125 177.21041992 71.40234375 177.75146484 C69.67578125 179.13671875 69.67578125 179.13671875 66.67578125 181.13671875 C66.67578125 181.79671875 66.67578125 182.45671875 66.67578125 183.13671875 C66.08643799 183.40081543 65.49709473 183.66491211 64.88989258 183.93701172 C62.59130976 185.18248927 61.08638608 186.48224089 59.25 188.33203125 C58.62198486 188.96117432 57.99396973 189.59031738 57.34692383 190.23852539 C56.69232178 190.9061792 56.03771973 191.57383301 55.36328125 192.26171875 C54.34754028 193.28930298 54.34754028 193.28930298 53.3112793 194.33764648 C48.92446936 198.79980746 44.69750883 203.34191611 40.67578125 208.13671875 C39.70979523 209.25256932 38.74218177 210.36701196 37.7734375 211.48046875 C36.69906962 212.71992283 35.62485211 213.95950727 34.55078125 215.19921875 C34.04716064 215.77744385 33.54354004 216.35566895 33.0246582 216.95141602 C26.76427183 223.41108219 26.76427183 223.41108219 23.67578125 231.13671875 C24.7225 230.84796875 25.76921875 230.55921875 26.84765625 230.26171875 C52.95892638 223.62831611 80.65373107 227.46579414 107.11328125 230.19921875 C134.82279124 233.99174232 134.82279124 233.99174232 160.67578125 226.13671875 C163.19067024 223.76188411 165.12002102 221.2482392 166.67578125 218.13671875 C166.83401227 210.68660122 164.65961791 205.22479416 160.98828125 198.88671875 C160.07186344 197.22075665 159.15911484 195.55277104 158.25 193.8828125 C157.8070459 193.07440918 157.3640918 192.26600586 156.90771484 191.43310547 C146.81057424 172.61152312 144.47649067 154.02549014 144.61328125 132.94921875 C144.61831162 131.60221523 144.62287178 130.25520986 144.62695312 128.90820312 C144.63862771 125.65099338 144.65500242 122.39388097 144.67578125 119.13671875 C144.34578125 119.13671875 144.01578125 119.13671875 143.67578125 119.13671875 Z " fill="#89AEE0" transform="translate(140.32421875,57.86328125)"/>
<path d="M0 0 C0.99 0 1.98 0 3 0 C4.65289484 6.1393237 5.19326273 12.04752151 5.1875 18.375 C5.18814453 19.06464844 5.18878906 19.75429688 5.18945312 20.46484375 C5.1534698 23.80802198 4.88490171 26.78434221 4 30 C8.18898826 29.74967638 12.37564271 29.4710898 16.5625 29.1875 C17.74392578 29.11724609 18.92535156 29.04699219 20.14257812 28.97460938 C29.57700492 28.31393523 35.4720963 27.31593775 42 20 C42.86238281 19.04222656 43.72476563 18.08445312 44.61328125 17.09765625 C45.052771 16.60241455 45.49226074 16.10717285 45.94506836 15.59692383 C57.64194645 2.47161071 57.64194645 2.47161071 65 1 C65.75 2.625 65.75 2.625 66 5 C64.1875 8.25 64.1875 8.25 62 11 C61.34 11 60.68 11 60 11 C59.66548828 12.04994141 59.66548828 12.04994141 59.32421875 13.12109375 C57.69972716 16.65280556 55.42967056 19.24700528 52.8125 22.0625 C52.12704102 22.8369043 52.12704102 22.8369043 51.42773438 23.62695312 C48.87773964 26.40329968 46.68082455 28.25412871 43.26171875 29.87109375 C39.73697904 31.71503939 39.73697904 31.71503939 38.74609375 35.3046875 C38.47713766 36.8664379 38.2320375 38.43233923 38 40 C37.53778748 42.35780319 37.06974675 44.71446724 36.59765625 47.0703125 C36.08042093 49.75416176 35.57169761 52.43961549 35.0625 55.125 C34.05659135 60.41966147 33.03773482 65.71147399 32 71 C31.87152679 71.65967773 31.74305359 72.31935547 31.61068726 72.99902344 C31.23325682 74.9202938 30.84338893 76.83910783 30.453125 78.7578125 C30.22915039 79.87043457 30.00517578 80.98305664 29.77441406 82.12939453 C28.64183976 86.32763182 27.3314038 88.21091775 24 91 C17.56455349 93.51721075 11.01566147 93.96374558 4.1875 94.625 C3.51969513 94.6897049 2.85189026 94.75440979 2.16384888 94.82107544 C-8.90591392 95.86679605 -19.94565763 96.34742199 -31.0625 96.4375 C-32.12641464 96.45541595 -32.12641464 96.45541595 -33.21182251 96.47369385 C-35.23606414 96.50331532 -37.26070231 96.50032095 -39.28515625 96.49609375 C-40.43894775 96.49794678 -41.59273926 96.4997998 -42.78149414 96.50170898 C-47.2846111 95.79975151 -50.66075271 93.82624631 -53.375 90.125 C-54.57135955 86.05737753 -54.34925512 82.9861321 -52.9375 79 C-49.64612501 73.90367743 -46.10751892 70.7630672 -40.375 68.6875 C-30.06171899 66.72400996 -19.45213573 66.85896668 -9 67 C-8.85304687 66.48695313 -8.70609375 65.97390625 -8.5546875 65.4453125 C-6.80290236 59.46508048 -4.89360351 53.54087535 -2.9375 47.625 C-2.6801709 46.84012207 -2.4228418 46.05524414 -2.15771484 45.24658203 C-1.90844238 44.49747559 -1.65916992 43.74836914 -1.40234375 42.9765625 C-1.18054443 42.30705566 -0.95874512 41.63754883 -0.73022461 40.94775391 C0.0444724 38.88137719 0.98108719 36.95602903 2 35 C1.360625 34.896875 0.72125 34.79375 0.0625 34.6875 C-0.618125 34.460625 -1.29875 34.23375 -2 34 C-3.66002479 29.01992564 -2.90207725 23.88732413 -2.6875 18.6875 C-2.65205078 17.55892578 -2.61660156 16.43035156 -2.58007812 15.26757812 C-2.51530273 13.62499023 -2.51530273 13.62499023 -2.44921875 11.94921875 C-2.41143311 10.95237061 -2.37364746 9.95552246 -2.3347168 8.9284668 C-1.97017357 5.73904596 -1.1109061 3.00399503 0 0 Z " fill="#89AFE1" transform="translate(192,304)"/>
<path d="M0 0 C10.10727273 6.06436364 16.74682168 15.14792688 20.20703125 26.32421875 C20.55882322 28.65484055 20.89033304 30.98856942 21.20703125 33.32421875 C21.82673904 35.43622735 22.47574959 37.53973302 23.14453125 39.63671875 C24.90072552 45.15436182 26.228473 50.62025422 27.20703125 56.32421875 C27.85929687 56.33839844 28.5115625 56.35257813 29.18359375 56.3671875 C35.58681533 56.71662585 38.84971202 57.53116759 43.20703125 62.32421875 C46.86837128 69.88595537 45.82837906 78.336374 43.1796875 86.09765625 C41.12349661 90.80459926 38.59599474 93.51861992 34.08203125 96.13671875 C25.71612003 99.17886829 16.65181363 98.83337134 8.20703125 96.32421875 C2.62694092 93.3819893 -0.80653769 89.93826107 -3.04296875 84.01171875 C-4.35487843 77.56149613 -4.02923792 72.58044798 -1.79296875 66.32421875 C-7.8778879 60.64589558 -14.14141955 55.35198638 -20.74951172 50.29858398 C-24.08622048 47.73332375 -27.08514615 45.07994131 -30.04296875 42.07421875 C-32.94055162 39.53106125 -35.04323534 38.73444941 -38.91796875 38.63671875 C-42.39007631 39.25692728 -43.46727649 39.86115969 -45.515625 42.7734375 C-46.51712302 44.85922404 -47.46297873 46.97240113 -48.359375 49.10546875 C-51.20032891 55.48406826 -55.84378816 60.48309887 -60.79296875 65.32421875 C-59.64707673 68.03269081 -58.47262328 69.66142451 -56.41796875 71.82421875 C-52.60442206 76.19225739 -51.37603983 81.85864373 -49.79296875 87.32421875 C-45.69762643 88.25341407 -42.93050899 88.05437291 -38.79296875 87.32421875 C-34.4752755 86.85697339 -31.51359251 87.01149523 -27.48046875 88.76171875 C-23.89471559 92.18069269 -22.62956397 95.48033242 -21.79296875 100.32421875 C-22.10546875 103.88671875 -22.10546875 103.88671875 -22.79296875 106.32421875 C-25.04296875 106.38671875 -25.04296875 106.38671875 -27.79296875 105.32421875 C-29.81695386 102.01341882 -31.79296875 98.26099026 -31.79296875 94.32421875 C-32.96214844 94.41960937 -34.13132813 94.515 -35.3359375 94.61328125 C-36.88407017 94.72587272 -38.43224995 94.83781789 -39.98046875 94.94921875 C-40.74939453 95.01367188 -41.51832031 95.078125 -42.31054688 95.14453125 C-47.52655072 95.50271177 -51.28474035 95.35930407 -55.51171875 91.9296875 C-58.12895113 88.65016765 -59.253355 84.20594875 -60.40234375 80.19921875 C-61.96964483 75.15327382 -63.83317282 73.28108892 -68.25390625 70.46875 C-69.79296875 69.32421875 -69.79296875 69.32421875 -71.04296875 66.82421875 C-70.7423994 63.81852527 -69.72933124 62.85742621 -67.51953125 60.89453125 C-61.21982356 55.16493285 -56.02149337 48.69003583 -51.79296875 41.32421875 C-52.51742187 41.34742188 -53.241875 41.370625 -53.98828125 41.39453125 C-59.33875119 41.49440669 -63.78742957 41.48877623 -68.79296875 39.32421875 C-68.46296875 38.33421875 -68.13296875 37.34421875 -67.79296875 36.32421875 C-65.5 35.41015625 -65.5 35.41015625 -62.60546875 34.69921875 C-61.66316406 34.45945313 -60.72085938 34.2196875 -59.75 33.97265625 C-56.77554001 33.32039686 -53.80081823 32.79656252 -50.79296875 32.32421875 C-50.57253906 31.19886719 -50.57253906 31.19886719 -50.34765625 30.05078125 C-48.18541558 20.18400487 -44.52890097 12.06836479 -36.79296875 5.32421875 C-36.05046875 4.64359375 -35.30796875 3.96296875 -34.54296875 3.26171875 C-24.26102632 -3.98237705 -11.61527161 -5.48980499 0 0 Z M-11.46875 34.84765625 C-15.89830458 35.48268053 -20.33595348 35.93397317 -24.79296875 36.32421875 C-23.24666909 40.61395329 -19.99244581 42.8034413 -16.48046875 45.44921875 C-15.86397461 45.92423828 -15.24748047 46.39925781 -14.61230469 46.88867188 C-12.05010242 48.8595967 -9.47251321 50.80988384 -6.89501953 52.76074219 C-5.68261349 53.6787754 -4.47123234 54.59816405 -3.26098633 55.51904297 C-2.13826404 56.37197367 -1.01192986 57.22017633 0.1184082 58.06298828 C2.71342541 60.02805119 4.37657816 61.57853912 6.20703125 64.32421875 C5.88576997 66.95856129 5.39348077 68.95131972 4.20703125 71.32421875 C3.44762769 78.13395228 3.97274511 82.8642182 8.20703125 88.32421875 C12.77854989 91.16309184 16.36199563 91.7562868 21.70703125 91.76171875 C23.6096875 91.79072266 23.6096875 91.79072266 25.55078125 91.8203125 C30.74221841 91.11591878 33.90770833 89.01333855 37.08203125 84.88671875 C39.1440864 78.35687746 39.73092279 71.25912098 36.51953125 65.07421875 C31.33643398 62.33597868 25.99106309 62.417373 20.20703125 62.32421875 C20.18125 61.47601563 20.15546875 60.6278125 20.12890625 59.75390625 C19.67406426 50.34694687 18.48376246 40.87768117 14.20703125 32.32421875 C5.60036509 32.32421875 -2.97732169 33.57346656 -11.46875 34.84765625 Z " fill="#89AEE1" transform="translate(246.79296875,2.67578125)"/>
<path d="M0 0 C10.77375266 0.37763669 21.23494705 7.42424741 30.47314453 12.50488281 C35.1695919 15.05977158 39.92325794 17.54354852 44.8984375 19.5078125 C47.1875 20.4375 47.1875 20.4375 48.1875 21.4375 C47.96008419 29.74723342 46.49515668 38.0970986 45.3125 46.3125 C45.15136719 47.50875 44.99023438 48.705 44.82421875 49.9375 C44.65792969 51.08992188 44.49164063 52.24234375 44.3203125 53.4296875 C44.17480957 54.46464355 44.02930664 55.49959961 43.87939453 56.56591797 C42.87688265 60.72666066 41.24464569 63.53137512 38 66.3125 C33.86912819 67.96484873 31.52135456 67.4860132 27.1875 66.4375 C23.61595993 63.46121661 22.85061895 58.87709346 22.1875 54.4375 C21.97513614 51.67029319 21.78739811 48.91082385 21.6328125 46.140625 C21.56719116 45.0280835 21.56719116 45.0280835 21.50024414 43.89306641 C21.39336735 42.07469687 21.29007364 40.25611735 21.1875 38.4375 C20.11266357 38.38215088 19.03782715 38.32680176 17.93041992 38.26977539 C13.9438634 38.06337998 9.95761457 37.85149153 5.97143555 37.63793945 C4.24592869 37.54626937 2.52034193 37.45609052 0.79467773 37.36743164 C-1.68528381 37.23976034 -4.16490887 37.10673447 -6.64453125 36.97265625 C-7.41650345 36.93406998 -8.18847565 36.8954837 -8.98384094 36.85572815 C-12.13366336 36.68101317 -14.80391591 36.44036136 -17.8125 35.4375 C-18.8813679 31.62501396 -19.05881986 29.9447789 -17.30078125 26.32421875 C-16.58277344 25.26847656 -15.86476563 24.21273438 -15.125 23.125 C-11.18187811 17.13761319 -8.2450688 11.17809631 -5.6875 4.5 C-4.3444568 1.33425532 -3.41853634 0.53177232 0 0 Z " fill="#89AEE0" transform="translate(396.8125,302.5625)"/>
<path d="M0 0 C6.85293181 0.83148387 12.51338573 3.84822922 18.61083984 6.87988281 C20.58930107 7.85736257 22.58060049 8.80390963 24.57421875 9.75 C40.03702091 17.28526986 51.59529089 28.06073192 57.51416016 44.55249023 C61.95394945 57.46861119 63.29330532 69.79146976 63 83.4375 C62.9487963 85.87351613 62.90679572 88.30974701 62.875 90.74609375 C62.85179687 91.80497803 62.82859375 92.8638623 62.8046875 93.95483398 C63.01669245 97.26025614 63.82678187 99.9148174 65 103 C62.75 103.75 62.75 103.75 60 104 C55.44015765 101.04951377 54.13077491 96.06693541 53 91 C52.72347818 86.78040361 52.86054053 82.59880565 53 78.375 C53.16544405 68.41764167 52.6615515 59.64348196 50 50 C49.79503906 49.10925781 49.59007812 48.21851563 49.37890625 47.30078125 C46.39541105 35.49651762 40.14627016 26.38399616 29.8671875 20.078125 C24.21974924 16.73884584 18.45743222 13.69331486 12.5625 10.8125 C7.98826867 8.55906342 3.91009388 6.28803349 0 3 C0 2.01 0 1.02 0 0 Z " fill="#89AEE0" transform="translate(320,191)"/>
<path d="M0 0 C1.87232721 1.80031463 3.67828358 3.57573648 5.25 5.6484375 C13.10715636 15.87166935 26.80973434 18.8571506 39 21 C46.76185921 21.8656603 53.53232372 21.18205675 61 19 C63.71562756 18.78205236 66.26760245 18.9041264 69 19 C69.495 20.98 69.495 20.98 70 23 C63.45744462 29.20703972 57.3151028 31.13506094 48.3125 31.4375 C33.88979418 31.0510395 15.98285626 24.88000197 5.33203125 14.56640625 C-1.12344204 6.97507256 -1.12344204 6.97507256 -0.8125 2 C-0.544375 1.34 -0.27625 0.68 0 0 Z " fill="#86ACE0" transform="translate(306,304)"/>
<path d="M0 0 C2.9719385 1.12451727 5.33440687 2.22293791 8 4 C10.28648848 4.24107326 10.28648848 4.24107326 12.6875 4.125 C13.49574219 4.10695313 14.30398437 4.08890625 15.13671875 4.0703125 C15.75160156 4.04710937 16.36648437 4.02390625 17 4 C16.51681957 10.52293578 16.51681957 10.52293578 14.375 12.5 C10.93615778 13.22396678 8.40118462 12.85029615 5 12 C0.89922968 9.11837762 0.10011319 5.76715714 -1 1 C-0.67 0.67 -0.34 0.34 0 0 Z " fill="#87AEE0" transform="translate(203,53)"/>
<path d="M0 0 C0.75 1.75 0.75 1.75 1 4 C-0.75 6.0625 -0.75 6.0625 -3 8 C-3.5775 8.5775 -4.155 9.155 -4.75 9.75 C-5.36875 10.36875 -5.36875 10.36875 -6 11 C-4.74194623 6.49197399 -3.09592835 3.5087188 0 0 Z " fill="#A5CBF2" transform="translate(163,279)"/>
</svg>
